<?xml version="1.0" encoding="UTF-8" standalone="no"?>
<!DOCTYPE svg PUBLIC "-//W3C//DTD SVG 1.1//EN"
 "http://www.w3.org/Graphics/SVG/1.1/DTD/svg11.dtd">
<!-- Generated by graphviz version 12.2.1 (20241206.2353)
 -->
<!-- Title: RedBlackTree Pages: 1 -->
<svg width="1124pt" height="548pt"
 viewBox="0.00 0.00 1124.00 548.00" xmlns="http://www.w3.org/2000/svg" xmlns:xlink="http://www.w3.org/1999/xlink">
<g id="graph0" class="graph" transform="scale(1 1) rotate(0) translate(4 544)">
<title>RedBlackTree</title>
<polygon fill="lightblue" stroke="none" points="-4,4 -4,-544 1120,-544 1120,4 -4,4"/>
<!-- 30 -->
<g id="node1" class="node">
<title>30</title>
<ellipse fill="black" stroke="black" cx="675" cy="-522" rx="27" ry="18"/>
<text text-anchor="middle" x="675" y="-516.95" font-family="Times,serif" font-size="14.00" fill="white">30</text>
</g>
<!-- 8 -->
<g id="node2" class="node">
<title>8</title>
<ellipse fill="violet" stroke="violet" cx="495" cy="-450" rx="27" ry="18"/>
<text text-anchor="middle" x="495" y="-444.95" font-family="Times,serif" font-size="14.00">8</text>
</g>
<!-- 30&#45;&gt;8 -->
<g id="edge1" class="edge">
<title>30&#45;&gt;8</title>
<path fill="none" stroke="blue" d="M652.2,-512.13C620.91,-499.97 564.44,-478 528.38,-463.98"/>
<polygon fill="blue" stroke="blue" points="529.89,-460.81 519.31,-460.45 527.36,-467.34 529.89,-460.81"/>
</g>
<!-- 47 -->
<g id="node31" class="node">
<title>47</title>
<ellipse fill="black" stroke="black" cx="801" cy="-450" rx="27" ry="18"/>
<text text-anchor="middle" x="801" y="-444.95" font-family="Times,serif" font-size="14.00" fill="white">47</text>
</g>
<!-- 30&#45;&gt;47 -->
<g id="edge30" class="edge">
<title>30&#45;&gt;47</title>
<path fill="none" stroke="purple" d="M695.24,-509.75C715.73,-498.37 747.62,-480.65 771.03,-467.65"/>
<polygon fill="purple" stroke="purple" points="772.44,-470.87 779.48,-462.95 769.04,-464.75 772.44,-470.87"/>
</g>
<!-- 4 -->
<g id="node3" class="node">
<title>4</title>
<ellipse fill="black" stroke="black" cx="207" cy="-378" rx="27" ry="18"/>
<text text-anchor="middle" x="207" y="-372.95" font-family="Times,serif" font-size="14.00" fill="white">4</text>
</g>
<!-- 8&#45;&gt;4 -->
<g id="edge2" class="edge">
<title>8&#45;&gt;4</title>
<path fill="none" stroke="blue" d="M469.69,-442.85C418.48,-430.4 302.4,-402.19 243.19,-387.8"/>
<polygon fill="blue" stroke="blue" points="244.16,-384.43 233.62,-385.47 242.51,-391.23 244.16,-384.43"/>
</g>
<!-- 16 -->
<g id="node10" class="node">
<title>16</title>
<ellipse fill="black" stroke="black" cx="495" cy="-378" rx="27" ry="18"/>
<text text-anchor="middle" x="495" y="-372.95" font-family="Times,serif" font-size="14.00" fill="white">16</text>
</g>
<!-- 8&#45;&gt;16 -->
<g id="edge9" class="edge">
<title>8&#45;&gt;16</title>
<path fill="none" stroke="purple" d="M495,-431.7C495,-424.41 495,-415.73 495,-407.54"/>
<polygon fill="purple" stroke="purple" points="498.5,-407.62 495,-397.62 491.5,-407.62 498.5,-407.62"/>
</g>
<!-- 2 -->
<g id="node4" class="node">
<title>2</title>
<ellipse fill="black" stroke="black" cx="99" cy="-306" rx="27" ry="18"/>
<text text-anchor="middle" x="99" y="-300.95" font-family="Times,serif" font-size="14.00" fill="white">2</text>
</g>
<!-- 4&#45;&gt;2 -->
<g id="edge3" class="edge">
<title>4&#45;&gt;2</title>
<path fill="none" stroke="blue" d="M188.19,-364.81C171.41,-353.93 146.61,-337.86 127.41,-325.42"/>
<polygon fill="blue" stroke="blue" points="129.52,-322.61 119.23,-320.11 125.72,-328.49 129.52,-322.61"/>
</g>
<!-- 6 -->
<g id="node7" class="node">
<title>6</title>
<ellipse fill="black" stroke="black" cx="207" cy="-306" rx="27" ry="18"/>
<text text-anchor="middle" x="207" y="-300.95" font-family="Times,serif" font-size="14.00" fill="white">6</text>
</g>
<!-- 4&#45;&gt;6 -->
<g id="edge6" class="edge">
<title>4&#45;&gt;6</title>
<path fill="none" stroke="purple" d="M207,-359.7C207,-352.41 207,-343.73 207,-335.54"/>
<polygon fill="purple" stroke="purple" points="210.5,-335.62 207,-325.62 203.5,-335.62 210.5,-335.62"/>
</g>
<!-- 1 -->
<g id="node5" class="node">
<title>1</title>
<ellipse fill="black" stroke="black" cx="27" cy="-234" rx="27" ry="18"/>
<text text-anchor="middle" x="27" y="-228.95" font-family="Times,serif" font-size="14.00" fill="white">1</text>
</g>
<!-- 2&#45;&gt;1 -->
<g id="edge4" class="edge">
<title>2&#45;&gt;1</title>
<path fill="none" stroke="blue" d="M84.08,-290.5C74.23,-280.92 61.14,-268.19 49.97,-257.34"/>
<polygon fill="blue" stroke="blue" points="52.59,-255 42.98,-250.54 47.71,-260.02 52.59,-255"/>
</g>
<!-- 3 -->
<g id="node6" class="node">
<title>3</title>
<ellipse fill="black" stroke="black" cx="99" cy="-234" rx="27" ry="18"/>
<text text-anchor="middle" x="99" y="-228.95" font-family="Times,serif" font-size="14.00" fill="white">3</text>
</g>
<!-- 2&#45;&gt;3 -->
<g id="edge5" class="edge">
<title>2&#45;&gt;3</title>
<path fill="none" stroke="purple" d="M99,-287.7C99,-280.41 99,-271.73 99,-263.54"/>
<polygon fill="purple" stroke="purple" points="102.5,-263.62 99,-253.62 95.5,-263.62 102.5,-263.62"/>
</g>
<!-- 5 -->
<g id="node8" class="node">
<title>5</title>
<ellipse fill="black" stroke="black" cx="171" cy="-234" rx="27" ry="18"/>
<text text-anchor="middle" x="171" y="-228.95" font-family="Times,serif" font-size="14.00" fill="white">5</text>
</g>
<!-- 6&#45;&gt;5 -->
<g id="edge7" class="edge">
<title>6&#45;&gt;5</title>
<path fill="none" stroke="blue" d="M198.65,-288.76C194.42,-280.55 189.19,-270.37 184.42,-261.09"/>
<polygon fill="blue" stroke="blue" points="187.68,-259.79 180,-252.49 181.46,-262.99 187.68,-259.79"/>
</g>
<!-- 7 -->
<g id="node9" class="node">
<title>7</title>
<ellipse fill="black" stroke="black" cx="243" cy="-234" rx="27" ry="18"/>
<text text-anchor="middle" x="243" y="-228.95" font-family="Times,serif" font-size="14.00" fill="white">7</text>
</g>
<!-- 6&#45;&gt;7 -->
<g id="edge8" class="edge">
<title>6&#45;&gt;7</title>
<path fill="none" stroke="purple" d="M215.35,-288.76C219.58,-280.55 224.81,-270.37 229.58,-261.09"/>
<polygon fill="purple" stroke="purple" points="232.54,-262.99 234,-252.49 226.32,-259.79 232.54,-262.99"/>
</g>
<!-- 12 -->
<g id="node11" class="node">
<title>12</title>
<ellipse fill="violet" stroke="violet" cx="423" cy="-306" rx="27" ry="18"/>
<text text-anchor="middle" x="423" y="-300.95" font-family="Times,serif" font-size="14.00">12</text>
</g>
<!-- 16&#45;&gt;12 -->
<g id="edge10" class="edge">
<title>16&#45;&gt;12</title>
<path fill="none" stroke="blue" d="M480.08,-362.5C470.23,-352.92 457.14,-340.19 445.97,-329.34"/>
<polygon fill="blue" stroke="blue" points="448.59,-327 438.98,-322.54 443.71,-332.02 448.59,-327"/>
</g>
<!-- 22 -->
<g id="node18" class="node">
<title>22</title>
<ellipse fill="violet" stroke="violet" cx="549" cy="-306" rx="27" ry="18"/>
<text text-anchor="middle" x="549" y="-300.95" font-family="Times,serif" font-size="14.00">22</text>
</g>
<!-- 16&#45;&gt;22 -->
<g id="edge17" class="edge">
<title>16&#45;&gt;22</title>
<path fill="none" stroke="purple" d="M506.98,-361.46C513.77,-352.67 522.4,-341.48 530.08,-331.53"/>
<polygon fill="purple" stroke="purple" points="532.79,-333.75 536.12,-323.69 527.25,-329.47 532.79,-333.75"/>
</g>
<!-- 10 -->
<g id="node12" class="node">
<title>10</title>
<ellipse fill="black" stroke="black" cx="315" cy="-234" rx="27" ry="18"/>
<text text-anchor="middle" x="315" y="-228.95" font-family="Times,serif" font-size="14.00" fill="white">10</text>
</g>
<!-- 12&#45;&gt;10 -->
<g id="edge11" class="edge">
<title>12&#45;&gt;10</title>
<path fill="none" stroke="blue" d="M404.19,-292.81C387.41,-281.93 362.61,-265.86 343.41,-253.42"/>
<polygon fill="blue" stroke="blue" points="345.52,-250.61 335.23,-248.11 341.72,-256.49 345.52,-250.61"/>
</g>
<!-- 14 -->
<g id="node15" class="node">
<title>14</title>
<ellipse fill="black" stroke="black" cx="423" cy="-234" rx="27" ry="18"/>
<text text-anchor="middle" x="423" y="-228.95" font-family="Times,serif" font-size="14.00" fill="white">14</text>
</g>
<!-- 12&#45;&gt;14 -->
<g id="edge14" class="edge">
<title>12&#45;&gt;14</title>
<path fill="none" stroke="purple" d="M423,-287.7C423,-280.41 423,-271.73 423,-263.54"/>
<polygon fill="purple" stroke="purple" points="426.5,-263.62 423,-253.62 419.5,-263.62 426.5,-263.62"/>
</g>
<!-- 9 -->
<g id="node13" class="node">
<title>9</title>
<ellipse fill="black" stroke="black" cx="225" cy="-162" rx="27" ry="18"/>
<text text-anchor="middle" x="225" y="-156.95" font-family="Times,serif" font-size="14.00" fill="white">9</text>
</g>
<!-- 10&#45;&gt;9 -->
<g id="edge12" class="edge">
<title>10&#45;&gt;9</title>
<path fill="none" stroke="blue" d="M298.07,-219.83C284.83,-209.54 266.19,-195.04 251.05,-183.26"/>
<polygon fill="blue" stroke="blue" points="253.4,-180.65 243.35,-177.27 249.1,-186.18 253.4,-180.65"/>
</g>
<!-- 11 -->
<g id="node14" class="node">
<title>11</title>
<ellipse fill="black" stroke="black" cx="297" cy="-162" rx="27" ry="18"/>
<text text-anchor="middle" x="297" y="-156.95" font-family="Times,serif" font-size="14.00" fill="white">11</text>
</g>
<!-- 10&#45;&gt;11 -->
<g id="edge13" class="edge">
<title>10&#45;&gt;11</title>
<path fill="none" stroke="purple" d="M310.64,-216.05C308.7,-208.49 306.35,-199.37 304.16,-190.85"/>
<polygon fill="purple" stroke="purple" points="307.57,-190.07 301.69,-181.25 300.79,-191.81 307.57,-190.07"/>
</g>
<!-- 13 -->
<g id="node16" class="node">
<title>13</title>
<ellipse fill="black" stroke="black" cx="369" cy="-162" rx="27" ry="18"/>
<text text-anchor="middle" x="369" y="-156.95" font-family="Times,serif" font-size="14.00" fill="white">13</text>
</g>
<!-- 14&#45;&gt;13 -->
<g id="edge15" class="edge">
<title>14&#45;&gt;13</title>
<path fill="none" stroke="blue" d="M411.02,-217.46C404.23,-208.67 395.6,-197.48 387.92,-187.53"/>
<polygon fill="blue" stroke="blue" points="390.75,-185.47 381.88,-179.69 385.21,-189.75 390.75,-185.47"/>
</g>
<!-- 15 -->
<g id="node17" class="node">
<title>15</title>
<ellipse fill="black" stroke="black" cx="441" cy="-162" rx="27" ry="18"/>
<text text-anchor="middle" x="441" y="-156.95" font-family="Times,serif" font-size="14.00" fill="white">15</text>
</g>
<!-- 14&#45;&gt;15 -->
<g id="edge16" class="edge">
<title>14&#45;&gt;15</title>
<path fill="none" stroke="purple" d="M427.36,-216.05C429.3,-208.49 431.65,-199.37 433.84,-190.85"/>
<polygon fill="purple" stroke="purple" points="437.21,-191.81 436.31,-181.25 430.43,-190.07 437.21,-191.81"/>
</g>
<!-- 20 -->
<g id="node19" class="node">
<title>20</title>
<ellipse fill="black" stroke="black" cx="549" cy="-234" rx="27" ry="18"/>
<text text-anchor="middle" x="549" y="-228.95" font-family="Times,serif" font-size="14.00" fill="white">20</text>
</g>
<!-- 22&#45;&gt;20 -->
<g id="edge18" class="edge">
<title>22&#45;&gt;20</title>
<path fill="none" stroke="blue" d="M549,-287.7C549,-280.41 549,-271.73 549,-263.54"/>
<polygon fill="blue" stroke="blue" points="552.5,-263.62 549,-253.62 545.5,-263.62 552.5,-263.62"/>
</g>
<!-- 24 -->
<g id="node24" class="node">
<title>24</title>
<ellipse fill="black" stroke="black" cx="657" cy="-234" rx="27" ry="18"/>
<text text-anchor="middle" x="657" y="-228.95" font-family="Times,serif" font-size="14.00" fill="white">24</text>
</g>
<!-- 22&#45;&gt;24 -->
<g id="edge23" class="edge">
<title>22&#45;&gt;24</title>
<path fill="none" stroke="purple" d="M567.81,-292.81C584.59,-281.93 609.39,-265.86 628.59,-253.42"/>
<polygon fill="purple" stroke="purple" points="630.28,-256.49 636.77,-248.11 626.48,-250.61 630.28,-256.49"/>
</g>
<!-- 18 -->
<g id="node20" class="node">
<title>18</title>
<ellipse fill="black" stroke="black" cx="513" cy="-162" rx="27" ry="18"/>
<text text-anchor="middle" x="513" y="-156.95" font-family="Times,serif" font-size="14.00" fill="white">18</text>
</g>
<!-- 20&#45;&gt;18 -->
<g id="edge19" class="edge">
<title>20&#45;&gt;18</title>
<path fill="none" stroke="blue" d="M540.65,-216.76C536.42,-208.55 531.19,-198.37 526.42,-189.09"/>
<polygon fill="blue" stroke="blue" points="529.68,-187.79 522,-180.49 523.46,-190.99 529.68,-187.79"/>
</g>
<!-- 21 -->
<g id="node23" class="node">
<title>21</title>
<ellipse fill="black" stroke="black" cx="585" cy="-162" rx="27" ry="18"/>
<text text-anchor="middle" x="585" y="-156.95" font-family="Times,serif" font-size="14.00" fill="white">21</text>
</g>
<!-- 20&#45;&gt;21 -->
<g id="edge22" class="edge">
<title>20&#45;&gt;21</title>
<path fill="none" stroke="purple" d="M557.35,-216.76C561.58,-208.55 566.81,-198.37 571.58,-189.09"/>
<polygon fill="purple" stroke="purple" points="574.54,-190.99 576,-180.49 568.32,-187.79 574.54,-190.99"/>
</g>
<!-- 17 -->
<g id="node21" class="node">
<title>17</title>
<ellipse fill="violet" stroke="violet" cx="477" cy="-90" rx="27" ry="18"/>
<text text-anchor="middle" x="477" y="-84.95" font-family="Times,serif" font-size="14.00">17</text>
</g>
<!-- 18&#45;&gt;17 -->
<g id="edge20" class="edge">
<title>18&#45;&gt;17</title>
<path fill="none" stroke="blue" d="M504.65,-144.76C500.42,-136.55 495.19,-126.37 490.42,-117.09"/>
<polygon fill="blue" stroke="blue" points="493.68,-115.79 486,-108.49 487.46,-118.99 493.68,-115.79"/>
</g>
<!-- 19 -->
<g id="node22" class="node">
<title>19</title>
<ellipse fill="violet" stroke="violet" cx="549" cy="-90" rx="27" ry="18"/>
<text text-anchor="middle" x="549" y="-84.95" font-family="Times,serif" font-size="14.00">19</text>
</g>
<!-- 18&#45;&gt;19 -->
<g id="edge21" class="edge">
<title>18&#45;&gt;19</title>
<path fill="none" stroke="purple" d="M521.35,-144.76C525.58,-136.55 530.81,-126.37 535.58,-117.09"/>
<polygon fill="purple" stroke="purple" points="538.54,-118.99 540,-108.49 532.32,-115.79 538.54,-118.99"/>
</g>
<!-- 23 -->
<g id="node25" class="node">
<title>23</title>
<ellipse fill="black" stroke="black" cx="657" cy="-162" rx="27" ry="18"/>
<text text-anchor="middle" x="657" y="-156.95" font-family="Times,serif" font-size="14.00" fill="white">23</text>
</g>
<!-- 24&#45;&gt;23 -->
<g id="edge24" class="edge">
<title>24&#45;&gt;23</title>
<path fill="none" stroke="blue" d="M657,-215.7C657,-208.41 657,-199.73 657,-191.54"/>
<polygon fill="blue" stroke="blue" points="660.5,-191.62 657,-181.62 653.5,-191.62 660.5,-191.62"/>
</g>
<!-- 26 -->
<g id="node26" class="node">
<title>26</title>
<ellipse fill="violet" stroke="violet" cx="729" cy="-162" rx="27" ry="18"/>
<text text-anchor="middle" x="729" y="-156.95" font-family="Times,serif" font-size="14.00">26</text>
</g>
<!-- 24&#45;&gt;26 -->
<g id="edge25" class="edge">
<title>24&#45;&gt;26</title>
<path fill="none" stroke="purple" d="M671.92,-218.5C681.77,-208.92 694.86,-196.19 706.03,-185.34"/>
<polygon fill="purple" stroke="purple" points="708.29,-188.02 713.02,-178.54 703.41,-183 708.29,-188.02"/>
</g>
<!-- 25 -->
<g id="node27" class="node">
<title>25</title>
<ellipse fill="black" stroke="black" cx="693" cy="-90" rx="27" ry="18"/>
<text text-anchor="middle" x="693" y="-84.95" font-family="Times,serif" font-size="14.00" fill="white">25</text>
</g>
<!-- 26&#45;&gt;25 -->
<g id="edge26" class="edge">
<title>26&#45;&gt;25</title>
<path fill="none" stroke="blue" d="M720.65,-144.76C716.42,-136.55 711.19,-126.37 706.42,-117.09"/>
<polygon fill="blue" stroke="blue" points="709.68,-115.79 702,-108.49 703.46,-118.99 709.68,-115.79"/>
</g>
<!-- 28 -->
<g id="node28" class="node">
<title>28</title>
<ellipse fill="black" stroke="black" cx="765" cy="-90" rx="27" ry="18"/>
<text text-anchor="middle" x="765" y="-84.95" font-family="Times,serif" font-size="14.00" fill="white">28</text>
</g>
<!-- 26&#45;&gt;28 -->
<g id="edge27" class="edge">
<title>26&#45;&gt;28</title>
<path fill="none" stroke="purple" d="M737.35,-144.76C741.58,-136.55 746.81,-126.37 751.58,-117.09"/>
<polygon fill="purple" stroke="purple" points="754.54,-118.99 756,-108.49 748.32,-115.79 754.54,-118.99"/>
</g>
<!-- 27 -->
<g id="node29" class="node">
<title>27</title>
<ellipse fill="violet" stroke="violet" cx="729" cy="-18" rx="27" ry="18"/>
<text text-anchor="middle" x="729" y="-12.95" font-family="Times,serif" font-size="14.00">27</text>
</g>
<!-- 28&#45;&gt;27 -->
<g id="edge28" class="edge">
<title>28&#45;&gt;27</title>
<path fill="none" stroke="blue" d="M756.65,-72.76C752.42,-64.55 747.19,-54.37 742.42,-45.09"/>
<polygon fill="blue" stroke="blue" points="745.68,-43.79 738,-36.49 739.46,-46.99 745.68,-43.79"/>
</g>
<!-- 29 -->
<g id="node30" class="node">
<title>29</title>
<ellipse fill="violet" stroke="violet" cx="801" cy="-18" rx="27" ry="18"/>
<text text-anchor="middle" x="801" y="-12.95" font-family="Times,serif" font-size="14.00">29</text>
</g>
<!-- 28&#45;&gt;29 -->
<g id="edge29" class="edge">
<title>28&#45;&gt;29</title>
<path fill="none" stroke="purple" d="M773.35,-72.76C777.58,-64.55 782.81,-54.37 787.58,-45.09"/>
<polygon fill="purple" stroke="purple" points="790.54,-46.99 792,-36.49 784.32,-43.79 790.54,-46.99"/>
</g>
<!-- 40 -->
<g id="node32" class="node">
<title>40</title>
<ellipse fill="black" stroke="black" cx="801" cy="-378" rx="27" ry="18"/>
<text text-anchor="middle" x="801" y="-372.95" font-family="Times,serif" font-size="14.00" fill="white">40</text>
</g>
<!-- 47&#45;&gt;40 -->
<g id="edge31" class="edge">
<title>47&#45;&gt;40</title>
<path fill="none" stroke="blue" d="M801,-431.7C801,-424.41 801,-415.73 801,-407.54"/>
<polygon fill="blue" stroke="blue" points="804.5,-407.62 801,-397.62 797.5,-407.62 804.5,-407.62"/>
</g>
<!-- 96 -->
<g id="node36" class="node">
<title>96</title>
<ellipse fill="violet" stroke="violet" cx="909" cy="-378" rx="27" ry="18"/>
<text text-anchor="middle" x="909" y="-372.95" font-family="Times,serif" font-size="14.00">96</text>
</g>
<!-- 47&#45;&gt;96 -->
<g id="edge35" class="edge">
<title>47&#45;&gt;96</title>
<path fill="none" stroke="purple" d="M819.81,-436.81C836.59,-425.93 861.39,-409.86 880.59,-397.42"/>
<polygon fill="purple" stroke="purple" points="882.28,-400.49 888.77,-392.11 878.48,-394.61 882.28,-400.49"/>
</g>
<!-- 31 -->
<g id="node33" class="node">
<title>31</title>
<ellipse fill="black" stroke="black" cx="765" cy="-306" rx="27" ry="18"/>
<text text-anchor="middle" x="765" y="-300.95" font-family="Times,serif" font-size="14.00" fill="white">31</text>
</g>
<!-- 40&#45;&gt;31 -->
<g id="edge32" class="edge">
<title>40&#45;&gt;31</title>
<path fill="none" stroke="blue" d="M792.65,-360.76C788.42,-352.55 783.19,-342.37 778.42,-333.09"/>
<polygon fill="blue" stroke="blue" points="781.68,-331.79 774,-324.49 775.46,-334.99 781.68,-331.79"/>
</g>
<!-- 45 -->
<g id="node35" class="node">
<title>45</title>
<ellipse fill="black" stroke="black" cx="837" cy="-306" rx="27" ry="18"/>
<text text-anchor="middle" x="837" y="-300.95" font-family="Times,serif" font-size="14.00" fill="white">45</text>
</g>
<!-- 40&#45;&gt;45 -->
<g id="edge34" class="edge">
<title>40&#45;&gt;45</title>
<path fill="none" stroke="purple" d="M809.35,-360.76C813.58,-352.55 818.81,-342.37 823.58,-333.09"/>
<polygon fill="purple" stroke="purple" points="826.54,-334.99 828,-324.49 820.32,-331.79 826.54,-334.99"/>
</g>
<!-- 33 -->
<g id="node34" class="node">
<title>33</title>
<ellipse fill="violet" stroke="violet" cx="765" cy="-234" rx="27" ry="18"/>
<text text-anchor="middle" x="765" y="-228.95" font-family="Times,serif" font-size="14.00">33</text>
</g>
<!-- 31&#45;&gt;33 -->
<g id="edge33" class="edge">
<title>31&#45;&gt;33</title>
<path fill="none" stroke="purple" d="M765,-287.7C765,-280.41 765,-271.73 765,-263.54"/>
<polygon fill="purple" stroke="purple" points="768.5,-263.62 765,-253.62 761.5,-263.62 768.5,-263.62"/>
</g>
<!-- 89 -->
<g id="node37" class="node">
<title>89</title>
<ellipse fill="black" stroke="black" cx="909" cy="-306" rx="27" ry="18"/>
<text text-anchor="middle" x="909" y="-300.95" font-family="Times,serif" font-size="14.00" fill="white">89</text>
</g>
<!-- 96&#45;&gt;89 -->
<g id="edge36" class="edge">
<title>96&#45;&gt;89</title>
<path fill="none" stroke="blue" d="M909,-359.7C909,-352.41 909,-343.73 909,-335.54"/>
<polygon fill="blue" stroke="blue" points="912.5,-335.62 909,-325.62 905.5,-335.62 912.5,-335.62"/>
</g>
<!-- 98 -->
<g id="node47" class="node">
<title>98</title>
<ellipse fill="black" stroke="black" cx="1017" cy="-306" rx="27" ry="18"/>
<text text-anchor="middle" x="1017" y="-300.95" font-family="Times,serif" font-size="14.00" fill="white">98</text>
</g>
<!-- 96&#45;&gt;98 -->
<g id="edge46" class="edge">
<title>96&#45;&gt;98</title>
<path fill="none" stroke="purple" d="M927.81,-364.81C944.59,-353.93 969.39,-337.86 988.59,-325.42"/>
<polygon fill="purple" stroke="purple" points="990.28,-328.49 996.77,-320.11 986.48,-322.61 990.28,-328.49"/>
</g>
<!-- 85 -->
<g id="node38" class="node">
<title>85</title>
<ellipse fill="violet" stroke="violet" cx="873" cy="-234" rx="27" ry="18"/>
<text text-anchor="middle" x="873" y="-228.95" font-family="Times,serif" font-size="14.00">85</text>
</g>
<!-- 89&#45;&gt;85 -->
<g id="edge37" class="edge">
<title>89&#45;&gt;85</title>
<path fill="none" stroke="blue" d="M900.65,-288.76C896.42,-280.55 891.19,-270.37 886.42,-261.09"/>
<polygon fill="blue" stroke="blue" points="889.68,-259.79 882,-252.49 883.46,-262.99 889.68,-259.79"/>
</g>
<!-- 92 -->
<g id="node42" class="node">
<title>92</title>
<ellipse fill="violet" stroke="violet" cx="945" cy="-234" rx="27" ry="18"/>
<text text-anchor="middle" x="945" y="-228.95" font-family="Times,serif" font-size="14.00">92</text>
</g>
<!-- 89&#45;&gt;92 -->
<g id="edge41" class="edge">
<title>89&#45;&gt;92</title>
<path fill="none" stroke="purple" d="M917.35,-288.76C921.58,-280.55 926.81,-270.37 931.58,-261.09"/>
<polygon fill="purple" stroke="purple" points="934.54,-262.99 936,-252.49 928.32,-259.79 934.54,-262.99"/>
</g>
<!-- 84 -->
<g id="node39" class="node">
<title>84</title>
<ellipse fill="black" stroke="black" cx="801" cy="-162" rx="27" ry="18"/>
<text text-anchor="middle" x="801" y="-156.95" font-family="Times,serif" font-size="14.00" fill="white">84</text>
</g>
<!-- 85&#45;&gt;84 -->
<g id="edge38" class="edge">
<title>85&#45;&gt;84</title>
<path fill="none" stroke="blue" d="M858.08,-218.5C848.23,-208.92 835.14,-196.19 823.97,-185.34"/>
<polygon fill="blue" stroke="blue" points="826.59,-183 816.98,-178.54 821.71,-188.02 826.59,-183"/>
</g>
<!-- 87 -->
<g id="node40" class="node">
<title>87</title>
<ellipse fill="black" stroke="black" cx="873" cy="-162" rx="27" ry="18"/>
<text text-anchor="middle" x="873" y="-156.95" font-family="Times,serif" font-size="14.00" fill="white">87</text>
</g>
<!-- 85&#45;&gt;87 -->
<g id="edge39" class="edge">
<title>85&#45;&gt;87</title>
<path fill="none" stroke="purple" d="M873,-215.7C873,-208.41 873,-199.73 873,-191.54"/>
<polygon fill="purple" stroke="purple" points="876.5,-191.62 873,-181.62 869.5,-191.62 876.5,-191.62"/>
</g>
<!-- 86 -->
<g id="node41" class="node">
<title>86</title>
<ellipse fill="violet" stroke="violet" cx="873" cy="-90" rx="27" ry="18"/>
<text text-anchor="middle" x="873" y="-84.95" font-family="Times,serif" font-size="14.00">86</text>
</g>
<!-- 87&#45;&gt;86 -->
<g id="edge40" class="edge">
<title>87&#45;&gt;86</title>
<path fill="none" stroke="blue" d="M873,-143.7C873,-136.41 873,-127.73 873,-119.54"/>
<polygon fill="blue" stroke="blue" points="876.5,-119.62 873,-109.62 869.5,-119.62 876.5,-119.62"/>
</g>
<!-- 90 -->
<g id="node43" class="node">
<title>90</title>
<ellipse fill="black" stroke="black" cx="945" cy="-162" rx="27" ry="18"/>
<text text-anchor="middle" x="945" y="-156.95" font-family="Times,serif" font-size="14.00" fill="white">90</text>
</g>
<!-- 92&#45;&gt;90 -->
<g id="edge42" class="edge">
<title>92&#45;&gt;90</title>
<path fill="none" stroke="blue" d="M945,-215.7C945,-208.41 945,-199.73 945,-191.54"/>
<polygon fill="blue" stroke="blue" points="948.5,-191.62 945,-181.62 941.5,-191.62 948.5,-191.62"/>
</g>
<!-- 94 -->
<g id="node44" class="node">
<title>94</title>
<ellipse fill="black" stroke="black" cx="1017" cy="-162" rx="27" ry="18"/>
<text text-anchor="middle" x="1017" y="-156.95" font-family="Times,serif" font-size="14.00" fill="white">94</text>
</g>
<!-- 92&#45;&gt;94 -->
<g id="edge43" class="edge">
<title>92&#45;&gt;94</title>
<path fill="none" stroke="purple" d="M959.92,-218.5C969.77,-208.92 982.86,-196.19 994.03,-185.34"/>
<polygon fill="purple" stroke="purple" points="996.29,-188.02 1001.02,-178.54 991.41,-183 996.29,-188.02"/>
</g>
<!-- 93 -->
<g id="node45" class="node">
<title>93</title>
<ellipse fill="violet" stroke="violet" cx="981" cy="-90" rx="27" ry="18"/>
<text text-anchor="middle" x="981" y="-84.95" font-family="Times,serif" font-size="14.00">93</text>
</g>
<!-- 94&#45;&gt;93 -->
<g id="edge44" class="edge">
<title>94&#45;&gt;93</title>
<path fill="none" stroke="blue" d="M1008.65,-144.76C1004.42,-136.55 999.19,-126.37 994.42,-117.09"/>
<polygon fill="blue" stroke="blue" points="997.68,-115.79 990,-108.49 991.46,-118.99 997.68,-115.79"/>
</g>
<!-- 95 -->
<g id="node46" class="node">
<title>95</title>
<ellipse fill="violet" stroke="violet" cx="1053" cy="-90" rx="27" ry="18"/>
<text text-anchor="middle" x="1053" y="-84.95" font-family="Times,serif" font-size="14.00">95</text>
</g>
<!-- 94&#45;&gt;95 -->
<g id="edge45" class="edge">
<title>94&#45;&gt;95</title>
<path fill="none" stroke="purple" d="M1025.35,-144.76C1029.58,-136.55 1034.81,-126.37 1039.58,-117.09"/>
<polygon fill="purple" stroke="purple" points="1042.54,-118.99 1044,-108.49 1036.32,-115.79 1042.54,-118.99"/>
</g>
<!-- 97 -->
<g id="node48" class="node">
<title>97</title>
<ellipse fill="black" stroke="black" cx="1017" cy="-234" rx="27" ry="18"/>
<text text-anchor="middle" x="1017" y="-228.95" font-family="Times,serif" font-size="14.00" fill="white">97</text>
</g>
<!-- 98&#45;&gt;97 -->
<g id="edge47" class="edge">
<title>98&#45;&gt;97</title>
<path fill="none" stroke="blue" d="M1017,-287.7C1017,-280.41 1017,-271.73 1017,-263.54"/>
<polygon fill="blue" stroke="blue" points="1020.5,-263.62 1017,-253.62 1013.5,-263.62 1020.5,-263.62"/>
</g>
<!-- 99 -->
<g id="node49" class="node">
<title>99</title>
<ellipse fill="black" stroke="black" cx="1089" cy="-234" rx="27" ry="18"/>
<text text-anchor="middle" x="1089" y="-228.95" font-family="Times,serif" font-size="14.00" fill="white">99</text>
</g>
<!-- 98&#45;&gt;99 -->
<g id="edge48" class="edge">
<title>98&#45;&gt;99</title>
<path fill="none" stroke="purple" d="M1031.92,-290.5C1041.77,-280.92 1054.86,-268.19 1066.03,-257.34"/>
<polygon fill="purple" stroke="purple" points="1068.29,-260.02 1073.02,-250.54 1063.41,-255 1068.29,-260.02"/>
</g>
</g>
</svg>
