<?xml version="1.0" encoding="UTF-8" standalone="no"?>
<!DOCTYPE svg PUBLIC "-//W3C//DTD SVG 1.1//EN"
 "http://www.w3.org/Graphics/SVG/1.1/DTD/svg11.dtd">
<!-- Generated by graphviz version 12.2.1 (20241206.2353)
 -->
<!-- Title: RedBlackTree Pages: 1 -->
<svg width="494pt" height="404pt"
 viewBox="0.00 0.00 494.00 404.00" xmlns="http://www.w3.org/2000/svg" xmlns:xlink="http://www.w3.org/1999/xlink">
<g id="graph0" class="graph" transform="scale(1 1) rotate(0) translate(4 400)">
<title>RedBlackTree</title>
<polygon fill="lightblue" stroke="none" points="-4,4 -4,-400 490,-400 490,4 -4,4"/>
<!-- 30 -->
<g id="node1" class="node">
<title>30</title>
<ellipse fill="black" stroke="black" cx="279" cy="-378" rx="27" ry="18"/>
<text text-anchor="middle" x="279" y="-372.95" font-family="Times,serif" font-size="14.00" fill="white">30</text>
</g>
<!-- 4 -->
<g id="node2" class="node">
<title>4</title>
<ellipse fill="violet" stroke="violet" cx="207" cy="-306" rx="27" ry="18"/>
<text text-anchor="middle" x="207" y="-300.95" font-family="Times,serif" font-size="14.00">4</text>
</g>
<!-- 30&#45;&gt;4 -->
<g id="edge1" class="edge">
<title>30&#45;&gt;4</title>
<path fill="none" stroke="blue" d="M264.08,-362.5C254.23,-352.92 241.14,-340.19 229.97,-329.34"/>
<polygon fill="blue" stroke="blue" points="232.59,-327 222.98,-322.54 227.71,-332.02 232.59,-327"/>
</g>
<!-- 40 -->
<g id="node14" class="node">
<title>40</title>
<ellipse fill="black" stroke="black" cx="315" cy="-306" rx="27" ry="18"/>
<text text-anchor="middle" x="315" y="-300.95" font-family="Times,serif" font-size="14.00" fill="white">40</text>
</g>
<!-- 30&#45;&gt;40 -->
<g id="edge13" class="edge">
<title>30&#45;&gt;40</title>
<path fill="none" stroke="purple" d="M287.35,-360.76C291.58,-352.55 296.81,-342.37 301.58,-333.09"/>
<polygon fill="purple" stroke="purple" points="304.54,-334.99 306,-324.49 298.32,-331.79 304.54,-334.99"/>
</g>
<!-- 2 -->
<g id="node3" class="node">
<title>2</title>
<ellipse fill="black" stroke="black" cx="99" cy="-234" rx="27" ry="18"/>
<text text-anchor="middle" x="99" y="-228.95" font-family="Times,serif" font-size="14.00" fill="white">2</text>
</g>
<!-- 4&#45;&gt;2 -->
<g id="edge2" class="edge">
<title>4&#45;&gt;2</title>
<path fill="none" stroke="blue" d="M188.19,-292.81C171.41,-281.93 146.61,-265.86 127.41,-253.42"/>
<polygon fill="blue" stroke="blue" points="129.52,-250.61 119.23,-248.11 125.72,-256.49 129.52,-250.61"/>
</g>
<!-- 8 -->
<g id="node6" class="node">
<title>8</title>
<ellipse fill="black" stroke="black" cx="207" cy="-234" rx="27" ry="18"/>
<text text-anchor="middle" x="207" y="-228.95" font-family="Times,serif" font-size="14.00" fill="white">8</text>
</g>
<!-- 4&#45;&gt;8 -->
<g id="edge5" class="edge">
<title>4&#45;&gt;8</title>
<path fill="none" stroke="purple" d="M207,-287.7C207,-280.41 207,-271.73 207,-263.54"/>
<polygon fill="purple" stroke="purple" points="210.5,-263.62 207,-253.62 203.5,-263.62 210.5,-263.62"/>
</g>
<!-- 1 -->
<g id="node4" class="node">
<title>1</title>
<ellipse fill="black" stroke="black" cx="27" cy="-162" rx="27" ry="18"/>
<text text-anchor="middle" x="27" y="-156.95" font-family="Times,serif" font-size="14.00" fill="white">1</text>
</g>
<!-- 2&#45;&gt;1 -->
<g id="edge3" class="edge">
<title>2&#45;&gt;1</title>
<path fill="none" stroke="blue" d="M84.08,-218.5C74.23,-208.92 61.14,-196.19 49.97,-185.34"/>
<polygon fill="blue" stroke="blue" points="52.59,-183 42.98,-178.54 47.71,-188.02 52.59,-183"/>
</g>
<!-- 3 -->
<g id="node5" class="node">
<title>3</title>
<ellipse fill="black" stroke="black" cx="99" cy="-162" rx="27" ry="18"/>
<text text-anchor="middle" x="99" y="-156.95" font-family="Times,serif" font-size="14.00" fill="white">3</text>
</g>
<!-- 2&#45;&gt;3 -->
<g id="edge4" class="edge">
<title>2&#45;&gt;3</title>
<path fill="none" stroke="purple" d="M99,-215.7C99,-208.41 99,-199.73 99,-191.54"/>
<polygon fill="purple" stroke="purple" points="102.5,-191.62 99,-181.62 95.5,-191.62 102.5,-191.62"/>
</g>
<!-- 6 -->
<g id="node7" class="node">
<title>6</title>
<ellipse fill="violet" stroke="violet" cx="171" cy="-162" rx="27" ry="18"/>
<text text-anchor="middle" x="171" y="-156.95" font-family="Times,serif" font-size="14.00">6</text>
</g>
<!-- 8&#45;&gt;6 -->
<g id="edge6" class="edge">
<title>8&#45;&gt;6</title>
<path fill="none" stroke="blue" d="M198.65,-216.76C194.42,-208.55 189.19,-198.37 184.42,-189.09"/>
<polygon fill="blue" stroke="blue" points="187.68,-187.79 180,-180.49 181.46,-190.99 187.68,-187.79"/>
</g>
<!-- 20 -->
<g id="node10" class="node">
<title>20</title>
<ellipse fill="violet" stroke="violet" cx="243" cy="-162" rx="27" ry="18"/>
<text text-anchor="middle" x="243" y="-156.95" font-family="Times,serif" font-size="14.00">20</text>
</g>
<!-- 8&#45;&gt;20 -->
<g id="edge9" class="edge">
<title>8&#45;&gt;20</title>
<path fill="none" stroke="purple" d="M215.35,-216.76C219.58,-208.55 224.81,-198.37 229.58,-189.09"/>
<polygon fill="purple" stroke="purple" points="232.54,-190.99 234,-180.49 226.32,-187.79 232.54,-190.99"/>
</g>
<!-- 5 -->
<g id="node8" class="node">
<title>5</title>
<ellipse fill="black" stroke="black" cx="99" cy="-90" rx="27" ry="18"/>
<text text-anchor="middle" x="99" y="-84.95" font-family="Times,serif" font-size="14.00" fill="white">5</text>
</g>
<!-- 6&#45;&gt;5 -->
<g id="edge7" class="edge">
<title>6&#45;&gt;5</title>
<path fill="none" stroke="blue" d="M156.08,-146.5C146.23,-136.92 133.14,-124.19 121.97,-113.34"/>
<polygon fill="blue" stroke="blue" points="124.59,-111 114.98,-106.54 119.71,-116.02 124.59,-111"/>
</g>
<!-- 7 -->
<g id="node9" class="node">
<title>7</title>
<ellipse fill="black" stroke="black" cx="171" cy="-90" rx="27" ry="18"/>
<text text-anchor="middle" x="171" y="-84.95" font-family="Times,serif" font-size="14.00" fill="white">7</text>
</g>
<!-- 6&#45;&gt;7 -->
<g id="edge8" class="edge">
<title>6&#45;&gt;7</title>
<path fill="none" stroke="purple" d="M171,-143.7C171,-136.41 171,-127.73 171,-119.54"/>
<polygon fill="purple" stroke="purple" points="174.5,-119.62 171,-109.62 167.5,-119.62 174.5,-119.62"/>
</g>
<!-- 10 -->
<g id="node11" class="node">
<title>10</title>
<ellipse fill="black" stroke="black" cx="243" cy="-90" rx="27" ry="18"/>
<text text-anchor="middle" x="243" y="-84.95" font-family="Times,serif" font-size="14.00" fill="white">10</text>
</g>
<!-- 20&#45;&gt;10 -->
<g id="edge10" class="edge">
<title>20&#45;&gt;10</title>
<path fill="none" stroke="blue" d="M243,-143.7C243,-136.41 243,-127.73 243,-119.54"/>
<polygon fill="blue" stroke="blue" points="246.5,-119.62 243,-109.62 239.5,-119.62 246.5,-119.62"/>
</g>
<!-- 23 -->
<g id="node13" class="node">
<title>23</title>
<ellipse fill="black" stroke="black" cx="315" cy="-90" rx="27" ry="18"/>
<text text-anchor="middle" x="315" y="-84.95" font-family="Times,serif" font-size="14.00" fill="white">23</text>
</g>
<!-- 20&#45;&gt;23 -->
<g id="edge12" class="edge">
<title>20&#45;&gt;23</title>
<path fill="none" stroke="purple" d="M257.92,-146.5C267.77,-136.92 280.86,-124.19 292.03,-113.34"/>
<polygon fill="purple" stroke="purple" points="294.29,-116.02 299.02,-106.54 289.41,-111 294.29,-116.02"/>
</g>
<!-- 9 -->
<g id="node12" class="node">
<title>9</title>
<ellipse fill="violet" stroke="violet" cx="243" cy="-18" rx="27" ry="18"/>
<text text-anchor="middle" x="243" y="-12.95" font-family="Times,serif" font-size="14.00">9</text>
</g>
<!-- 10&#45;&gt;9 -->
<g id="edge11" class="edge">
<title>10&#45;&gt;9</title>
<path fill="none" stroke="blue" d="M243,-71.7C243,-64.41 243,-55.73 243,-47.54"/>
<polygon fill="blue" stroke="blue" points="246.5,-47.62 243,-37.62 239.5,-47.62 246.5,-47.62"/>
</g>
<!-- 31 -->
<g id="node15" class="node">
<title>31</title>
<ellipse fill="black" stroke="black" cx="315" cy="-234" rx="27" ry="18"/>
<text text-anchor="middle" x="315" y="-228.95" font-family="Times,serif" font-size="14.00" fill="white">31</text>
</g>
<!-- 40&#45;&gt;31 -->
<g id="edge14" class="edge">
<title>40&#45;&gt;31</title>
<path fill="none" stroke="blue" d="M315,-287.7C315,-280.41 315,-271.73 315,-263.54"/>
<polygon fill="blue" stroke="blue" points="318.5,-263.62 315,-253.62 311.5,-263.62 318.5,-263.62"/>
</g>
<!-- 47 -->
<g id="node17" class="node">
<title>47</title>
<ellipse fill="violet" stroke="violet" cx="387" cy="-234" rx="27" ry="18"/>
<text text-anchor="middle" x="387" y="-228.95" font-family="Times,serif" font-size="14.00">47</text>
</g>
<!-- 40&#45;&gt;47 -->
<g id="edge16" class="edge">
<title>40&#45;&gt;47</title>
<path fill="none" stroke="purple" d="M329.92,-290.5C339.77,-280.92 352.86,-268.19 364.03,-257.34"/>
<polygon fill="purple" stroke="purple" points="366.29,-260.02 371.02,-250.54 361.41,-255 366.29,-260.02"/>
</g>
<!-- 33 -->
<g id="node16" class="node">
<title>33</title>
<ellipse fill="violet" stroke="violet" cx="315" cy="-162" rx="27" ry="18"/>
<text text-anchor="middle" x="315" y="-156.95" font-family="Times,serif" font-size="14.00">33</text>
</g>
<!-- 31&#45;&gt;33 -->
<g id="edge15" class="edge">
<title>31&#45;&gt;33</title>
<path fill="none" stroke="purple" d="M315,-215.7C315,-208.41 315,-199.73 315,-191.54"/>
<polygon fill="purple" stroke="purple" points="318.5,-191.62 315,-181.62 311.5,-191.62 318.5,-191.62"/>
</g>
<!-- 45 -->
<g id="node18" class="node">
<title>45</title>
<ellipse fill="black" stroke="black" cx="387" cy="-162" rx="27" ry="18"/>
<text text-anchor="middle" x="387" y="-156.95" font-family="Times,serif" font-size="14.00" fill="white">45</text>
</g>
<!-- 47&#45;&gt;45 -->
<g id="edge17" class="edge">
<title>47&#45;&gt;45</title>
<path fill="none" stroke="blue" d="M387,-215.7C387,-208.41 387,-199.73 387,-191.54"/>
<polygon fill="blue" stroke="blue" points="390.5,-191.62 387,-181.62 383.5,-191.62 390.5,-191.62"/>
</g>
<!-- 90 -->
<g id="node19" class="node">
<title>90</title>
<ellipse fill="black" stroke="black" cx="459" cy="-162" rx="27" ry="18"/>
<text text-anchor="middle" x="459" y="-156.95" font-family="Times,serif" font-size="14.00" fill="white">90</text>
</g>
<!-- 47&#45;&gt;90 -->
<g id="edge18" class="edge">
<title>47&#45;&gt;90</title>
<path fill="none" stroke="purple" d="M401.92,-218.5C411.77,-208.92 424.86,-196.19 436.03,-185.34"/>
<polygon fill="purple" stroke="purple" points="438.29,-188.02 443.02,-178.54 433.41,-183 438.29,-188.02"/>
</g>
<!-- 92 -->
<g id="node20" class="node">
<title>92</title>
<ellipse fill="violet" stroke="violet" cx="459" cy="-90" rx="27" ry="18"/>
<text text-anchor="middle" x="459" y="-84.95" font-family="Times,serif" font-size="14.00">92</text>
</g>
<!-- 90&#45;&gt;92 -->
<g id="edge19" class="edge">
<title>90&#45;&gt;92</title>
<path fill="none" stroke="purple" d="M459,-143.7C459,-136.41 459,-127.73 459,-119.54"/>
<polygon fill="purple" stroke="purple" points="462.5,-119.62 459,-109.62 455.5,-119.62 462.5,-119.62"/>
</g>
</g>
</svg>
